<svg width="496" height="166" viewBox="0 0 496 166" fill="none" xmlns="http://www.w3.org/2000/svg">
<rect x="44" y="69.0228" width="80" height="20" rx="10" transform="rotate(-36 44 69.0228)" fill="#69B1F4"/>
<rect x="47" y="62" width="160" height="20" rx="10" fill="black"/>
<rect x="135" y="105.023" width="80" height="20" rx="10" transform="rotate(-36 135 105.023)" fill="#F061D1"/>
<path d="M256.273 85H246.156L235.727 64.8828H235.551C235.798 68.0469 235.922 70.4622 235.922 72.1289V85H229.086V56.4453H239.164L249.555 76.2891H249.672C249.49 73.4115 249.398 71.1003 249.398 69.3555V56.4453H256.273V85ZM270.872 85H263.235V62.8711H270.872V85ZM263.04 57.3633C263.04 56.2174 263.359 55.3646 263.997 54.8047C264.635 54.2448 265.664 53.9648 267.083 53.9648C268.502 53.9648 269.537 54.2513 270.188 54.8242C270.839 55.3971 271.165 56.2435 271.165 57.3633C271.165 59.6029 269.804 60.7227 267.083 60.7227C264.388 60.7227 263.04 59.6029 263.04 57.3633ZM290.92 68.5938H286.213V85H278.576V68.5938H275.646V64.8438L278.732 62.9688V62.5977C278.732 59.681 279.324 57.5846 280.509 56.3086C281.707 55.0326 283.621 54.3945 286.252 54.3945C287.267 54.3945 288.224 54.4727 289.123 54.6289C290.034 54.7852 291.089 55.0586 292.287 55.4492L290.646 60.3906C289.709 60.1302 288.791 60 287.892 60C287.306 60 286.877 60.1823 286.603 60.5469C286.343 60.8984 286.213 61.4779 286.213 62.2852V62.8711H290.92V68.5938ZM305.967 79.3555C306.996 79.3555 308.226 79.1016 309.659 78.5938V84.1602C308.63 84.6029 307.647 84.9154 306.709 85.0977C305.785 85.293 304.698 85.3906 303.448 85.3906C300.883 85.3906 299.034 84.7656 297.901 83.5156C296.768 82.2526 296.202 80.319 296.202 77.7148V68.5938H293.526V65.4883L296.924 63.0859L298.897 58.4375H303.897V62.8711H309.327V68.5938H303.897V77.207C303.897 78.6393 304.587 79.3555 305.967 79.3555ZM312.05 62.8711H320.097L323.847 75.5664C324.029 76.2305 324.153 77.0312 324.218 77.9688H324.374C324.478 77.0703 324.635 76.2826 324.843 75.6055L328.691 62.8711H336.484L327.734 86.4062C326.614 89.401 325.234 91.5169 323.593 92.7539C321.965 93.9909 319.836 94.6094 317.206 94.6094C316.191 94.6094 315.149 94.4987 314.081 94.2773V88.2812C314.771 88.4375 315.559 88.5156 316.445 88.5156C317.122 88.5156 317.714 88.3854 318.222 88.125C318.73 87.8646 319.172 87.4935 319.55 87.0117C319.928 86.543 320.331 85.7682 320.761 84.6875L312.05 62.8711ZM359.461 76.3281C359.461 78.099 359.012 79.6745 358.113 81.0547C357.215 82.4219 355.919 83.4896 354.227 84.2578C352.534 85.013 350.548 85.3906 348.27 85.3906C346.368 85.3906 344.773 85.2604 343.484 85C342.195 84.7266 340.854 84.2578 339.461 83.5938V76.7188C340.932 77.474 342.462 78.0664 344.051 78.4961C345.639 78.9128 347.098 79.1211 348.426 79.1211C349.572 79.1211 350.411 78.9258 350.945 78.5352C351.479 78.1315 351.746 77.6172 351.746 76.9922C351.746 76.6016 351.635 76.263 351.414 75.9766C351.206 75.6771 350.861 75.3776 350.379 75.0781C349.91 74.7786 348.647 74.1667 346.59 73.2422C344.728 72.3958 343.328 71.5755 342.391 70.7812C341.466 69.987 340.776 69.0755 340.32 68.0469C339.878 67.0182 339.656 65.8008 339.656 64.3945C339.656 61.7643 340.613 59.7135 342.527 58.2422C344.441 56.7708 347.072 56.0352 350.418 56.0352C353.374 56.0352 356.388 56.7188 359.461 58.0859L357.098 64.043C354.428 62.819 352.124 62.207 350.184 62.207C349.181 62.207 348.452 62.3828 347.996 62.7344C347.54 63.0859 347.312 63.5221 347.312 64.043C347.312 64.6029 347.599 65.1042 348.172 65.5469C348.758 65.9896 350.333 66.7969 352.898 67.9688C355.359 69.0755 357.065 70.2669 358.016 71.543C358.979 72.806 359.461 74.401 359.461 76.3281ZM383.669 85L381.169 74.4531L380.583 71.2695L380.192 68.7109H380.075C379.437 72.3568 379.007 74.6549 378.786 75.6055L376.54 85H368.512L362.477 62.8711H369.997L371.794 71.3672C372.367 74.2839 372.699 76.7057 372.79 78.6328H372.907C372.946 77.4349 373.304 75.1562 373.981 71.7969L376.032 62.8711H384.47L386.345 71.9141C386.943 74.7917 387.321 77.0312 387.477 78.6328H387.595C387.673 77.6432 387.803 76.4128 387.985 74.9414C388.167 73.457 388.369 72.2656 388.591 71.3672L390.544 62.8711H397.907L391.833 85H383.669ZM416.666 85L415.201 82.0703H415.045C414.016 83.3464 412.968 84.2188 411.9 84.6875C410.832 85.1562 409.452 85.3906 407.759 85.3906C405.676 85.3906 404.035 84.7656 402.837 83.5156C401.64 82.2656 401.041 80.5078 401.041 78.2422C401.041 75.8854 401.861 74.1341 403.502 72.9883C405.142 71.8294 407.518 71.1784 410.63 71.0352L414.322 70.918V70.6055C414.322 68.7826 413.423 67.8711 411.627 67.8711C410.012 67.8711 407.961 68.418 405.474 69.5117L403.267 64.4727C405.845 63.1445 409.101 62.4805 413.033 62.4805C415.871 62.4805 418.065 63.1836 419.615 64.5898C421.177 65.9961 421.959 67.9622 421.959 70.4883V85H416.666ZM411.002 80C411.926 80 412.714 79.707 413.365 79.1211C414.029 78.5352 414.361 77.7734 414.361 76.8359V75.1172L412.603 75.1953C410.09 75.2865 408.834 76.2109 408.834 77.9688C408.834 79.3229 409.556 80 411.002 80ZM441.635 85.3906C440.515 85.3906 439.513 85.2083 438.627 84.8438C437.742 84.4661 436.863 83.7956 435.991 82.832H435.639C435.873 84.3815 435.991 85.3451 435.991 85.7227V94.6094H428.354V62.8711H434.565L435.639 65.6836H435.991C437.41 63.5482 439.37 62.4805 441.87 62.4805C444.317 62.4805 446.238 63.4961 447.631 65.5273C449.024 67.5586 449.721 70.3451 449.721 73.8867C449.721 77.4544 448.992 80.2669 447.534 82.3242C446.088 84.3685 444.122 85.3906 441.635 85.3906ZM439.077 68.4766C437.957 68.4766 437.169 68.8802 436.713 69.6875C436.271 70.4818 436.03 71.6667 435.991 73.2422V73.8477C435.991 75.7487 436.245 77.1224 436.752 77.9688C437.26 78.8151 438.061 79.2383 439.155 79.2383C440.131 79.2383 440.841 78.8216 441.284 77.9883C441.726 77.1419 441.948 75.7487 441.948 73.8086C441.948 71.9076 441.726 70.5469 441.284 69.7266C440.841 68.8932 440.105 68.4766 439.077 68.4766Z" fill="black"/>
</svg>
